# xmcd
#
# Track frame offsets:
#	150
#	28071
#	66171
#	88128
#	115886
#	130758
#	169421
#
# Disc length: 3018 seconds
#
# Revision: 0
# Processed by: cddbd v1.5.2PL0 Copyright (c) Steve Scherf et al.
# Submitted via: audiograbber 1.83.01
#
DISCID=5f0bc807
DTITLE=Grateful Dead - 83-10-11 Madison Square Garden, New York NY
DYEAR=1983
DGENRE=Rock
TTITLE0=Grateful Dead - China Cat> 
TTITLE1=Grateful Dead - I Know You Rider
TTITLE2=Grateful Dead - I Need a Miracle >
TTITLE3=Grateful Dead - Bertha > 
TTITLE4=Grateful Dead - Jam> 
TTITLE5=Grateful Dead - China Doll> 
TTITLE6=Grateful Dead - Drums>
EXTD=
EXTT0=
EXTT1=
EXTT2=
EXTT3=
EXTT4=
EXTT5=
EXTT6=
PLAYORDER=
